<?xml version="1.0" encoding="iso-8859-1"?>
<!-- Generator: Adobe Illustrator 19.0.0, SVG Export Plug-In . SVG Version: 6.00 Build 0)  -->
<svg version="1.1" id="Layer_1" xmlns="http://www.w3.org/2000/svg" xmlns:xlink="http://www.w3.org/1999/xlink" x="0px" y="0px"
	 viewBox="0 0 512.002 512.002" style="enable-background:new 0 0 512.002 512.002;" xml:space="preserve">
<g>
	<g>
		<g>
			<path d="M144.481,326.856l-20.336,61.003l61.004-20.335L487.946,64.729l-40.669-40.669L144.481,326.856z M176.691,353.837
				l-27.782,9.261l9.261-27.782l30.15-30.15l18.521,18.521L176.691,353.837z M217.915,312.613l-18.521-18.521L447.277,46.208
				l18.521,18.521L217.915,312.613z"/>
			
				<rect x="476.435" y="-3.657" transform="matrix(0.7071 -0.7071 0.7071 0.7071 122.2284 350.5494)" width="15.66" height="62.777"/>
			<polygon points="450.428,496.341 15.665,496.341 15.665,69.62 361.739,69.62 361.739,53.96 0.005,53.96 0.005,512.002 
				466.089,512.002 466.089,142.226 450.428,142.226 			"/>
		</g>
	</g>
</g>
<g>
</g>
<g>
</g>
<g>
</g>
<g>
</g>
<g>
</g>
<g>
</g>
<g>
</g>
<g>
</g>
<g>
</g>
<g>
</g>
<g>
</g>
<g>
</g>
<g>
</g>
<g>
</g>
<g>
</g>
</svg>
